#Comment line ignore any data following # character 
#Hierarchical Translation and Rotation (.htr) file 
[Header]	
#Header keywords are followed by a single value 
FileType HTR		#Single word string
DataType HTRS		#Translation followed by rotation and scale data
FileVersion 1		#integer
NumSegments 64		#integer
NumFrames 3		#integer
DataFrameRate 30		#integer, data frame rate in this file
EulerRotationOrder ZYX
CalibrationUnits mm
RotationUnits Degrees
GlobalAxisofGravity Y
BoneLengthAxis Y
ScaleFactor 1.00
[SegmentNames&Hierarchy]
#CHILD	PARENT
Pinger_Root GLOBAL
Pelvis Pinger_Root
L_Hip Pelvis
R_Hip Pelvis
Rear_Leg01 Pelvis
Spine1 Pelvis
L_Leg01 L_Hip
L_Leg02 L_Leg01
L_Leg03 L_Leg02
L_Foot L_Leg03
L_Toe1_01 L_Foot
L_Toe2_01 L_Foot
L_Toe3_01 L_Foot
planeAlignerLeft L_Foot
L_Toe1_02 L_Toe1_01
L_Toe1_03 L_Toe1_02
L_Toe2_02 L_Toe2_01
L_Toe2_03 L_Toe2_02
L_Toe3_02 L_Toe3_01
L_Toe3_03 L_Toe3_02
planeLockWeightLeft planeAlignerLeft
R_Leg01 R_Hip
R_Leg02 R_Leg01
R_Leg03 R_Leg02
R_Foot R_Leg03
planeAlignerRight R_Foot
R_Toe1_01 R_Foot
R_Toe2_01 R_Foot
R_Toe3_01 R_Foot
planeLockWeightRight planeAlignerRight
R_Toe1_02 R_Toe1_01
R_Toe1_03 R_Toe1_02
R_Toe2_02 R_Toe2_01
R_Toe2_03 R_Toe2_02
R_Toe3_02 R_Toe3_01
R_Toe3_03 R_Toe3_02
Rear_Leg02 Rear_Leg01
Rear_Leg03 Rear_Leg02
Rear_Leg04 Rear_Leg03
Rear_Foot Rear_Leg04
planeAlignerCenter Rear_Foot
Rear_Toe1_01 Rear_Foot
Rear_Toe2_01 Rear_Foot
Rear_Toe3_01 Rear_Foot
planeLockWeightCenter planeAlignerCenter
Rear_Toe1_02 Rear_Toe1_01
Rear_Toe1_03 Rear_Toe1_02
Rear_Toe2_02 Rear_Toe2_01
Rear_Toe2_03 Rear_Toe2_02
Rear_Toe3_02 Rear_Toe3_01
Rear_Toe3_03 Rear_Toe3_02
Back_Bone Spine1
Head Spine1
Motor_Bone Back_Bone
Ping_Mechanism Back_Bone
BN_LookIK Head
bottomMouth Head
L_Mouth01 Head
L_mouthFront Head
mouthGun Head
R_Mouth01 Head
R_mouthFront Head
TopMouth Head
weapon_bone Head
[BasePosition]
#SegmentName Tx, Ty, Tz, Rx, Ry, Rz, BoneLength
Pinger_Root 0.000000 0.000000 0.000000 -90.000000 0.000000 0.000000 10.000000 
Pelvis 0.000000 0.000000 0.000000 0.000000 0.000000 0.000000 10.000000 
L_Hip 0.000000 0.000000 0.000000 0.000000 0.000000 0.000000 10.000000 
R_Hip 0.000000 0.000000 0.000000 0.000000 0.000000 0.000000 10.000000 
Rear_Leg01 0.000000 0.000000 0.000000 0.000000 0.000000 0.000000 10.000000 
Spine1 0.000000 0.000000 0.000000 0.000000 0.000000 0.000000 10.000000 
L_Leg01 0.000000 0.000000 0.000000 0.000000 0.000000 0.000000 10.000000 
L_Leg02 0.000000 0.000000 0.000000 0.000000 0.000000 0.000000 10.000000 
L_Leg03 0.000000 0.000000 0.000000 0.000000 0.000000 0.000000 10.000000 
L_Foot 0.000000 0.000000 0.000000 0.000000 0.000000 0.000000 10.000000 
L_Toe1_01 0.000000 0.000000 0.000000 0.000000 0.000000 0.000000 10.000000 
L_Toe2_01 0.000000 0.000000 0.000000 0.000000 0.000000 0.000000 10.000000 
L_Toe3_01 0.000000 0.000000 0.000000 0.000000 0.000000 0.000000 10.000000 
planeAlignerLeft 0.000000 0.000000 0.000000 0.000000 0.000000 0.000000 10.000000 
L_Toe1_02 0.000000 0.000000 0.000000 0.000000 0.000000 0.000000 10.000000 
L_Toe1_03 0.000000 0.000000 0.000000 0.000000 0.000000 0.000000 10.000000 
L_Toe2_02 0.000000 0.000000 0.000000 0.000000 0.000000 0.000000 10.000000 
L_Toe2_03 0.000000 0.000000 0.000000 0.000000 0.000000 0.000000 10.000000 
L_Toe3_02 0.000000 0.000000 0.000000 0.000000 0.000000 0.000000 10.000000 
L_Toe3_03 0.000000 0.000000 0.000000 0.000000 0.000000 0.000000 10.000000 
planeLockWeightLeft 0.000000 0.000000 0.000000 0.000000 0.000000 0.000000 10.000000 
R_Leg01 0.000000 0.000000 0.000000 0.000000 0.000000 0.000000 10.000000 
R_Leg02 0.000000 0.000000 0.000000 0.000000 0.000000 0.000000 10.000000 
R_Leg03 0.000000 0.000000 0.000000 0.000000 0.000000 0.000000 10.000000 
R_Foot 0.000000 0.000000 0.000000 0.000000 0.000000 0.000000 10.000000 
planeAlignerRight 0.000000 0.000000 0.000000 0.000000 0.000000 0.000000 10.000000 
R_Toe1_01 0.000000 0.000000 0.000000 0.000000 0.000000 0.000000 10.000000 
R_Toe2_01 0.000000 0.000000 0.000000 0.000000 0.000000 0.000000 10.000000 
R_Toe3_01 0.000000 0.000000 0.000000 0.000000 0.000000 0.000000 10.000000 
planeLockWeightRight 0.000000 0.000000 0.000000 0.000000 0.000000 0.000000 10.000000 
R_Toe1_02 0.000000 0.000000 0.000000 0.000000 0.000000 0.000000 10.000000 
R_Toe1_03 0.000000 0.000000 0.000000 0.000000 0.000000 0.000000 10.000000 
R_Toe2_02 0.000000 0.000000 0.000000 0.000000 0.000000 0.000000 10.000000 
R_Toe2_03 0.000000 0.000000 0.000000 0.000000 0.000000 0.000000 10.000000 
R_Toe3_02 0.000000 0.000000 0.000000 0.000000 0.000000 0.000000 10.000000 
R_Toe3_03 0.000000 0.000000 0.000000 0.000000 0.000000 0.000000 10.000000 
Rear_Leg02 0.000000 0.000000 0.000000 0.000000 0.000000 0.000000 10.000000 
Rear_Leg03 0.000000 0.000000 0.000000 0.000000 0.000000 0.000000 10.000000 
Rear_Leg04 0.000000 0.000000 0.000000 0.000000 0.000000 0.000000 10.000000 
Rear_Foot 0.000000 0.000000 0.000000 0.000000 0.000000 0.000000 10.000000 
planeAlignerCenter 0.000000 0.000000 0.000000 0.000000 0.000000 0.000000 10.000000 
Rear_Toe1_01 0.000000 0.000000 0.000000 0.000000 0.000000 0.000000 10.000000 
Rear_Toe2_01 0.000000 0.000000 0.000000 0.000000 0.000000 0.000000 10.000000 
Rear_Toe3_01 0.000000 0.000000 0.000000 0.000000 0.000000 0.000000 10.000000 
planeLockWeightCenter 0.000000 0.000000 0.000000 0.000000 0.000000 0.000000 10.000000 
Rear_Toe1_02 0.000000 0.000000 0.000000 0.000000 0.000000 0.000000 10.000000 
Rear_Toe1_03 0.000000 0.000000 0.000000 0.000000 0.000000 0.000000 10.000000 
Rear_Toe2_02 0.000000 0.000000 0.000000 0.000000 0.000000 0.000000 10.000000 
Rear_Toe2_03 0.000000 0.000000 0.000000 0.000000 0.000000 0.000000 10.000000 
Rear_Toe3_02 0.000000 0.000000 0.000000 0.000000 0.000000 0.000000 10.000000 
Rear_Toe3_03 0.000000 0.000000 0.000000 0.000000 0.000000 0.000000 10.000000 
Back_Bone 0.000000 0.000000 0.000000 0.000000 0.000000 0.000000 10.000000 
Head 0.000000 0.000000 0.000000 0.000000 0.000000 0.000000 10.000000 
Motor_Bone 0.000000 0.000000 0.000000 0.000000 0.000000 0.000000 10.000000 
Ping_Mechanism 0.000000 0.000000 0.000000 0.000000 0.000000 0.000000 10.000000 
BN_LookIK 0.000000 0.000000 0.000000 0.000000 0.000000 0.000000 10.000000 
bottomMouth 0.000000 0.000000 0.000000 0.000000 0.000000 0.000000 10.000000 
L_Mouth01 0.000000 0.000000 0.000000 0.000000 0.000000 0.000000 10.000000 
L_mouthFront 0.000000 0.000000 0.000000 0.000000 0.000000 0.000000 10.000000 
mouthGun 0.000000 0.000000 0.000000 0.000000 0.000000 0.000000 10.000000 
R_Mouth01 0.000000 0.000000 0.000000 0.000000 0.000000 0.000000 10.000000 
R_mouthFront 0.000000 0.000000 0.000000 0.000000 0.000000 0.000000 10.000000 
TopMouth 0.000000 0.000000 0.000000 0.000000 0.000000 0.000000 10.000000 
weapon_bone 0.000000 0.000000 0.000000 0.000000 0.000000 0.000000 10.000000 
#Beginning of Data. Separated by tabs
#Fr	Tx	Ty	Tz	Rx	Ry	Rz	SF
[Pinger_Root]
19 0.000000 0.000000 0.000000 -0.000075 -0.000000 -0.000020 0.000000
20 0.000000 0.000000 0.000000 -0.000075 -0.000000 -0.000020 0.000000
21 0.000000 0.000000 0.000000 -0.000075 -0.000000 -0.000020 0.000000
[Pelvis]
19 -249.796021 904.182007 4523.816406 68.756195 -60.198296 -79.710144 4620.049805
20 -249.407806 903.560425 4535.854980 67.479050 -60.535374 -78.533417 4631.695801
21 -248.009338 903.155884 4550.690430 65.824127 -61.759418 -76.826347 4646.072266
[L_Hip]
19 5.766392 125.831482 872.656799 160.158691 -45.484905 122.312202 881.701050
20 5.766392 125.831482 872.656799 160.158691 -45.484905 122.312202 881.701050
21 5.766392 125.831482 872.656799 160.158691 -45.484905 122.312202 881.701050
[R_Hip]
19 5.765438 125.836372 -872.654907 -39.741192 48.659916 32.054008 881.699829
20 5.765438 125.836372 -872.654907 -41.199284 47.548191 30.099483 881.699829
21 5.765438 125.836372 -872.654907 -42.232433 46.688423 28.684200 881.699829
[Rear_Leg01]
19 -192.298416 -925.602966 -0.001907 176.479691 18.625656 -122.188576 945.367432
20 -192.298416 -925.602966 -0.001907 176.635651 19.094042 -122.887894 945.367432
21 -192.298416 -925.602966 -0.001907 176.623413 19.343258 -124.750999 945.367432
[Spine1]
19 290.604584 5.007505 0.000477 3.448688 0.012319 52.451519 290.647736
20 290.604584 5.007505 0.000477 3.278782 -0.444922 51.924007 290.647736
21 290.604584 5.007505 0.000477 3.164124 -0.762583 50.477413 290.647736
[L_Leg01]
19 761.932007 -0.002384 -0.069261 27.456110 1.979235 -77.922203 761.932068
20 761.932007 -0.002384 -0.069261 27.303457 1.605726 -78.560005 761.932068
21 761.932007 -0.002384 -0.069261 27.314362 0.444686 -78.073372 761.932068
[L_Leg02]
19 1441.140503 -0.000954 -0.000715 -1.480681 0.263236 -77.752625 1441.140503
20 1441.140503 -0.000954 -0.000715 -1.519486 0.281389 -76.198952 1441.140503
21 1441.140503 -0.000954 -0.000715 -1.528834 0.287213 -75.597038 1441.140503
[L_Leg03]
19 1686.963989 -0.000715 -0.000954 0.009221 -0.001491 108.376411 1686.963989
20 1686.963989 -0.000715 -0.000954 0.009229 -0.001437 107.698013 1686.963989
21 1686.963989 -0.000715 -0.000954 0.009233 -0.001415 107.422150 1686.963989
[L_Foot]
19 3041.570068 -30.715107 11.297464 14.189453 13.934883 51.850372 3041.746094
20 3041.570068 -30.715107 11.297464 14.157583 13.915389 51.605526 3041.746094
21 3041.570068 -30.715107 11.297464 14.153966 13.913456 51.575474 3041.746094
[L_Toe1_01]
19 -188.216690 -224.732346 -21.137953 94.316055 -5.577643 -179.984955 293.899567
20 -188.216690 -224.732346 -21.137953 94.322685 -5.556450 179.893768 293.899567
21 -188.216690 -224.732346 -21.137953 94.329254 -5.535242 179.772507 293.899567
[L_Toe2_01]
19 200.746536 -219.926590 148.838394 -93.617271 -26.511972 -43.977757 332.896027
20 200.746536 -219.926590 148.838394 -93.674240 -26.510876 -43.837742 332.896027
21 200.746536 -219.926590 148.838394 -93.731216 -26.509663 -43.697716 332.896027
[L_Toe3_01]
19 188.832520 -219.859131 -191.078659 -98.910278 17.264769 -59.073269 347.140900
20 188.832520 -219.859131 -191.078659 -98.889778 17.328270 -58.911030 347.140900
21 188.832520 -219.859131 -191.078659 -98.869064 17.391712 -58.748703 347.140900
[planeAlignerLeft]
19 0.812531 -811.448792 -0.314951 0.000000 -90.000000 -90.001900 811.449280
20 0.812531 -811.448792 -0.314951 0.000000 -90.000000 -90.001900 811.449280
21 0.812531 -811.448792 -0.314951 0.000000 -90.000000 -90.001900 811.449280
[L_Toe1_02]
19 413.761139 0.000477 0.000000 0.001386 -25.660419 0.001386 413.761139
20 413.761139 0.000477 0.000000 0.001387 -25.643373 0.001387 413.761139
21 413.761139 0.000477 0.000000 0.001387 -25.626328 0.001387 413.761139
[L_Toe1_03]
19 464.317322 0.000358 -0.000089 0.004838 61.920269 0.004838 464.317322
20 464.317322 0.000358 -0.000089 0.004862 62.066025 0.004862 464.317322
21 464.317322 0.000358 -0.000089 0.004887 62.211754 0.004887 464.317322
[L_Toe2_02]
19 342.235809 -0.000477 0.000238 0.001183 -75.329597 0.001183 342.235809
20 342.235809 -0.000477 0.000238 0.001183 -75.376945 0.001183 342.235809
21 342.235809 -0.000477 0.000238 0.001183 -75.424263 0.001183 342.235809
[L_Toe2_03]
19 420.210846 -0.000715 0.000000 -179.985306 85.993080 -179.981812 420.210846
20 420.210846 -0.000715 0.000000 -179.985931 85.834442 -179.982437 420.210846
21 420.210846 -0.000715 0.000000 -179.986526 85.675682 -179.983017 420.210846
[L_Toe3_02]
19 329.270111 0.000954 0.000000 0.001176 -82.458061 0.001176 329.270111
20 329.270111 0.000954 0.000000 0.001176 -82.477852 0.001176 329.270111
21 329.270111 0.000954 0.000000 0.001176 -82.497551 0.001176 329.270111
[L_Toe3_03]
19 439.137451 -0.001907 0.000954 -179.998596 69.178589 -179.995041 439.137451
20 439.137451 -0.001907 0.000954 -179.998627 68.974449 -179.995071 439.137451
21 439.137451 -0.001907 0.000954 -179.998657 68.770317 -179.995102 439.137451
[planeLockWeightLeft]
19 -0.000954 0.000238 -0.000305 -0.011826 -0.004376 0.005620 0.001029
20 -0.000954 0.000238 -0.000305 -0.011826 -0.004376 0.005620 0.001029
21 -0.000954 0.000238 -0.000305 -0.011826 -0.004376 0.005620 0.001029
[R_Leg01]
19 761.455627 -0.001907 -0.000358 128.704468 -10.128622 84.719864 761.455688
20 761.455627 -0.001907 -0.000358 129.434525 -11.369649 85.133240 761.455688
21 761.455627 -0.001907 -0.000358 130.678833 -13.020735 84.727074 761.455688
[R_Leg02]
19 1441.140625 0.000000 -0.000238 7.192004 -4.256006 -120.736160 1441.140625
20 1441.140625 0.000000 -0.000238 7.602278 -4.676739 -120.878693 1441.140625
21 1441.140625 0.000000 -0.000238 7.910060 -5.009681 -121.230583 1441.140625
[R_Leg03]
19 1686.963989 0.000954 0.001431 -0.081769 0.012851 88.407043 1686.963989
20 1686.963989 0.000954 0.001431 -0.085394 0.011949 87.259125 1686.963989
21 1686.963989 0.000954 0.001431 -0.089000 0.010973 86.111191 1686.963989
[R_Foot]
19 3041.560059 -30.531288 -11.204481 -8.363044 -9.496496 68.476563 3041.734131
20 3041.560059 -30.531288 -11.204481 -8.437834 -9.427607 68.831963 3041.734131
21 3041.560059 -30.531288 -11.204481 -8.512172 -9.358259 69.187180 3041.734131
[planeAlignerRight]
19 -0.635147 -812.270569 -0.364304 0.000000 -89.960434 -90.005180 812.270874
20 -0.635147 -812.270569 -0.364304 0.000000 -89.960434 -90.005180 812.270874
21 -0.635147 -812.270569 -0.364304 0.000000 -89.960434 -90.005180 812.270874
[R_Toe1_01]
19 -188.383347 -224.864899 21.052242 76.852417 -0.891349 -174.573135 294.101532
20 -188.383347 -224.864899 21.052242 76.834717 -0.804133 -174.235855 294.101532
21 -188.383347 -224.864899 21.052242 76.808281 -0.662097 -173.687881 294.101532
[R_Toe2_01]
19 200.637817 -220.002121 -148.787384 -90.864700 33.098492 -57.472328 332.857574
20 200.637817 -220.002121 -148.787384 -91.100166 33.041477 -57.926506 332.857574
21 200.637817 -220.002121 -148.787384 -91.334900 32.982903 -58.380108 332.857574
[R_Toe3_01]
19 188.606735 -220.092957 191.126343 -73.077385 -9.118208 -72.247116 347.192566
20 188.606735 -220.092957 191.126343 -73.114487 -8.943576 -72.644478 347.192566
21 188.606735 -220.092957 191.126343 -73.152779 -8.769191 -73.041748 347.192566
[planeLockWeightRight]
19 -0.000477 0.000000 0.000000 -0.011823 -0.004379 -0.000027 0.000477
20 -0.000477 0.000000 0.000000 -0.011823 -0.004379 -0.000027 0.000477
21 -0.000477 0.000000 0.000000 -0.011823 -0.004379 -0.000027 0.000477
[R_Toe1_02]
19 413.762085 0.000477 -0.000119 0.001396 -24.399717 0.001396 413.762085
20 413.762085 0.000477 -0.000119 0.001396 -24.479849 0.001396 413.762085
21 413.762085 0.000477 -0.000119 0.001395 -24.559975 0.001395 413.762085
[R_Toe1_03]
19 464.317810 0.000000 0.001088 0.007326 71.563004 0.007326 464.317810
20 464.317810 0.000000 0.001088 0.007189 71.209396 0.007189 464.317810
21 464.317810 0.000000 0.001088 0.006974 70.624535 0.006974 464.317810
[R_Toe2_02]
19 342.234741 -0.000954 0.000238 0.001195 -68.399513 0.001195 342.234741
20 342.234741 -0.000954 0.000238 0.001195 -68.158478 0.001195 342.234741
21 342.234741 -0.000954 0.000238 0.001196 -67.917480 0.001196 342.234741
[R_Toe2_03]
19 420.210846 0.000715 -0.000268 0.009763 76.191246 0.009763 420.210846
20 420.210846 0.000715 -0.000268 0.009362 75.596718 0.009362 420.210846
21 420.210846 0.000715 -0.000268 0.008993 75.002068 0.008993 420.210846
[R_Toe3_02]
19 329.270355 -0.000477 -0.000954 0.001183 -75.522713 0.001183 329.270355
20 329.270355 -0.000477 -0.000954 0.001183 -75.310181 0.001183 329.270355
21 329.270355 -0.000477 -0.000954 0.001184 -75.097618 0.001184 329.270355
[R_Toe3_03]
19 439.137939 0.000238 0.001431 -0.018314 86.023003 -0.014815 439.137939
20 439.137939 0.000238 0.001431 -0.016063 85.397339 -0.012563 439.137939
21 439.137939 0.000238 0.001431 -0.014351 84.771454 -0.010850 439.137939
[Rear_Leg02]
19 1162.777710 -0.029802 0.005960 0.857284 -2.851947 -128.301697 1162.777710
20 1162.777710 -0.029802 0.005960 0.829690 -2.860778 -127.725143 1162.777710
21 1162.777710 -0.029802 0.005960 0.802007 -2.869330 -127.148552 1162.777710
[Rear_Leg03]
19 607.192505 -0.013351 -0.073195 0.010587 -0.004906 66.077332 607.192505
20 607.192505 -0.013351 -0.073195 0.010595 -0.004889 65.897392 607.192505
21 607.192505 -0.013351 -0.073195 0.010603 -0.004872 65.717438 607.192505
[Rear_Leg04]
19 995.874512 -0.020504 -0.011921 -0.043521 -0.018109 61.879173 995.874573
20 995.874512 -0.020504 -0.011921 -0.043468 -0.018234 61.549915 995.874573
21 995.874512 -0.020504 -0.011921 -0.043383 -0.018436 61.016075 995.874573
[Rear_Foot]
19 3096.176270 -0.067472 -0.041425 -44.671642 86.678520 152.993652 3096.176270
20 3096.176270 -0.067472 -0.041425 -44.089836 86.632385 153.395157 3096.176270
21 3096.176270 -0.067472 -0.041425 -44.522388 86.629486 152.508041 3096.176270
[planeAlignerCenter]
19 0.350077 0.966311 -838.790894 0.000009 0.000003 -179.999985 838.791565
20 0.350077 0.966311 -838.790894 0.000009 0.000003 -179.999985 838.791565
21 0.350077 0.966311 -838.790894 0.000009 0.000003 -179.999985 838.791565
[Rear_Toe1_01]
19 0.653352 83.966492 -371.173737 0.289853 41.136559 90.406410 380.553192
20 0.653352 83.966492 -371.173737 0.289868 41.136581 90.406403 380.553192
21 0.653352 83.966492 -371.173737 0.289889 41.136608 90.406410 380.553192
[Rear_Toe2_01]
19 178.200760 -294.826019 -362.060547 -7.260142 33.852180 -66.228554 499.765686
20 178.200760 -294.826019 -362.060547 -7.260161 33.852207 -66.228569 499.765686
21 178.200760 -294.826019 -362.060547 -7.260186 33.852242 -66.228607 499.765686
[Rear_Toe3_01]
19 -153.359680 -308.780914 -362.060852 3.322300 32.989574 -112.582558 499.952881
20 -153.359680 -308.780914 -362.060852 3.322300 32.989574 -112.582558 499.952881
21 -153.359680 -308.780914 -362.060852 3.322300 32.989574 -112.582558 499.952881
[planeLockWeightCenter]
19 -0.000062 0.000238 0.000000 -0.011814 -0.004373 -0.000015 0.000246
20 -0.000062 0.000238 0.000000 -0.011814 -0.004373 -0.000015 0.000246
21 -0.000062 0.000238 0.000000 -0.011814 -0.004373 -0.000015 0.000246
[Rear_Toe1_02]
19 379.707825 0.194073 0.000477 -0.000261 -31.944153 0.006945 379.707855
20 379.707825 0.194073 0.000477 -0.000261 -31.944153 0.006945 379.707855
21 379.707825 0.194073 0.000477 -0.000261 -31.944153 0.006945 379.707855
[Rear_Toe1_03]
19 500.129700 0.165701 0.000119 0.000045 53.309292 0.007413 500.129761
20 500.129700 0.165701 0.000119 0.000045 53.309292 0.007413 500.129761
21 500.129700 0.165701 0.000119 0.000045 53.309299 0.007413 500.129761
[Rear_Toe2_02]
19 340.494507 0.000238 -0.000954 0.001191 -70.483078 0.001191 340.494507
20 340.494507 0.000238 -0.000954 0.001191 -70.483078 0.001191 340.494507
21 340.494507 0.000238 -0.000954 0.001191 -70.483078 0.001191 340.494507
[Rear_Toe2_03]
19 433.103577 0.000000 0.000238 0.007025 70.765343 0.007025 433.103546
20 433.103577 0.000000 0.000238 0.007025 70.765282 0.007025 433.103546
21 433.103577 0.000000 0.000238 0.007025 70.765266 0.007025 433.103546
[Rear_Toe3_02]
19 340.494141 -0.000358 -0.000477 0.001919 -67.923424 0.000122 340.494171
20 340.494141 -0.000358 -0.000477 0.001959 -67.923424 0.000063 340.494171
21 340.494141 -0.000358 -0.000477 0.001999 -67.923424 0.000003 340.494171
[Rear_Toe3_03]
19 433.103577 0.001431 -0.000238 0.005869 66.927971 0.005869 433.103546
20 433.103577 0.001431 -0.000238 0.005869 66.927956 0.005869 433.103546
21 433.103577 0.001431 -0.000238 0.005869 66.927925 0.005869 433.103546
[Back_Bone]
19 1312.175781 -701.934692 0.000954 1.476493 0.002402 -86.746658 1488.125488
20 1312.175781 -701.934692 0.000954 1.476493 0.002314 -86.739861 1488.125488
21 1312.175781 -701.934692 0.000954 1.476493 0.002226 -86.733055 1488.125488
[Head]
19 1406.159424 809.709290 0.001431 -8.571121 -3.348933 10.636782 1622.625488
20 1406.159424 809.709290 0.001431 -8.956667 -3.342479 11.248430 1622.625488
21 1406.159424 809.709290 0.001431 -9.263965 -3.332341 12.152353 1622.625488
[Motor_Bone]
19 1158.364380 -417.834747 0.000477 -0.000105 0.000046 -105.985291 1231.419434
20 1158.364380 -417.834747 0.000477 -0.000105 0.000046 -105.985291 1231.419434
21 1158.364380 -417.834747 0.000477 -0.000105 0.000046 -105.985291 1231.419434
[Ping_Mechanism]
19 1103.008789 -344.423828 43.849415 0.000103 -0.000053 82.120995 1156.364502
20 1104.436523 -346.518585 46.105736 0.000103 -0.000053 82.120995 1158.438965
21 1108.723389 -352.332764 47.940521 0.000103 -0.000053 82.120995 1164.347168
[BN_LookIK]
19 193.241119 1380.371704 -0.002861 0.000000 89.965736 -31.038179 1393.832153
20 193.241119 1380.371704 -0.002861 0.000000 89.965736 -31.038179 1393.832153
21 193.241119 1380.371704 -0.002861 0.000000 89.965736 -31.038179 1393.832153
[bottomMouth]
19 -435.092926 615.759399 -0.000954 -0.000022 0.000016 73.527184 753.966492
20 -435.092926 615.759399 -0.000954 -0.000022 0.000016 73.527184 753.966492
21 -435.092926 615.759399 -0.000954 -0.000022 0.000016 73.527184 753.966492
[L_Mouth01]
19 554.440979 7.658243 838.222046 150.204178 23.759130 109.605339 1005.027161
20 554.440979 7.658243 838.222046 150.204178 23.759130 109.605339 1005.027161
21 554.440979 7.658243 838.222046 150.204178 23.759130 109.605339 1005.027161
[L_mouthFront]
19 551.629089 934.514771 339.150421 0.000081 2.804060 79.119301 1136.941284
20 551.629089 934.514771 339.150421 0.000081 2.804060 79.119301 1136.941284
21 551.629089 934.514771 339.150421 0.000081 2.804060 79.119301 1136.941284
[mouthGun]
19 55.332661 1627.420898 0.000000 0.000023 0.000009 -11.038128 1628.361328
20 55.332661 1627.420898 0.000000 0.000023 0.000009 -11.038128 1628.361328
21 55.332661 1627.420898 0.000000 0.000023 0.000009 -11.038128 1628.361328
[R_Mouth01]
19 554.442383 7.659197 -838.223938 29.795891 -23.759109 109.605331 1005.029541
20 554.442383 7.659197 -838.223938 29.795891 -23.759109 109.605331 1005.029541
21 554.442383 7.659197 -838.223938 29.795891 -23.759109 109.605331 1005.029541
[R_mouthFront]
19 551.629089 934.514282 -339.151367 0.000029 -2.803930 79.119133 1136.941162
20 551.629089 934.514282 -339.151367 0.000029 -2.803930 79.119133 1136.941162
21 551.629089 934.514282 -339.151367 0.000029 -2.803930 79.119133 1136.941162
[TopMouth]
19 461.269867 -56.106091 -0.008583 -0.000059 -0.000268 92.025169 464.669525
20 461.269867 -56.106091 -0.008583 -0.000059 -0.000268 92.025169 464.669525
21 461.269867 -56.106091 -0.008583 -0.000059 -0.000268 92.025169 464.669525
[weapon_bone]
19 -987.239868 1448.372803 0.001431 0.000000 89.965736 -31.038221 1752.833740
20 -987.239868 1448.372803 0.001431 0.000000 89.965736 -31.038221 1752.833740
21 -987.239868 1448.372803 0.001431 0.000000 89.965736 -31.038221 1752.833740
